<svg xmlns="http://www.w3.org/2000/svg" width="18" height="18" fill="none" viewBox="0 0 24 24" id="job">
  <path fill="#292D32" fill-rule="evenodd" d="M5.108 4.867c.717-.097 1.595-.114 2.651-.116A3.25 3.25 0 0 1 11 1.75h2a3.25 3.25 0 0 1 3.24 3c1.057.003 1.935.02 2.652.117.9.12 1.658.38 2.26.981.602.602.86 1.36.982 2.26.116.867.116 1.97.116 3.337v4.11c0 1.367 0 2.47-.116 3.337-.122.9-.38 1.658-.982 2.26-.602.602-1.36.86-2.26.982-.867.116-1.97.116-3.337.116h-7.11c-1.367 0-2.47 0-3.337-.116-.9-.122-1.658-.38-2.26-.982-.602-.602-.86-1.36-.981-2.26-.117-.867-.117-1.97-.117-3.337v-4.11c0-1.367 0-2.47.117-3.337.12-.9.38-1.658.981-2.26.602-.602 1.36-.86 2.26-.981Zm9.624-.117H9.268A1.75 1.75 0 0 1 11 3.25h2a1.75 1.75 0 0 1 1.732 1.5ZM5.308 20.647c-.734-.099-1.122-.28-1.399-.556-.277-.277-.457-.665-.556-1.4-.101-.755-.103-1.756-.103-3.191v-3.37c3.688 1.548 5.842 2.394 8.11 2.5.426.02.854.02 1.28 0 2.268-.106 4.422-.952 8.11-2.5v3.37c0 1.435-.002 2.436-.103 3.192-.099.734-.28 1.122-.556 1.399-.277.277-.665.457-1.4.556-.755.101-1.756.103-3.191.103h-7c-1.435 0-2.437-.002-3.192-.103Zm15.44-10.144c-4.125 1.735-6.109 2.532-8.178 2.628-.38.018-.76.018-1.14 0-2.07-.096-4.053-.893-8.178-2.628.005-.923.025-1.628.101-2.195.099-.734.28-1.122.556-1.399.277-.277.665-.457 1.4-.556.754-.101 1.756-.103 3.191-.103h7c1.435 0 2.436.002 3.192.103.734.099 1.122.28 1.399.556.277.277.457.665.556 1.4.076.566.096 1.27.101 2.194Z" clip-rule="evenodd" />
</svg>